# xmcd
#
# Track frame offsets:
#	150
#	16979
#	37598
#	71048
#	97017
#	117636
#	143667
#	167400
#
# Disc length: 2626 seconds
#
# Revision: 2
# Processed by: cddbd v1.5.1PL2 Copyright (c) Steve Scherf et al.
# Submitted via: EasyCDDAExtractor 8.0.2.1
#
DISCID=620a4008
DTITLE=Saxon  - Maimarkthalle Mannheim 28-10-86 Disc 2
DYEAR=1986
DGENRE=Hard Rock
TTITLE0=01 This Town Rocks
TTITLE1=02 Drum Solo
TTITLE2=03 Wheels Of Steel
TTITLE3=04 Crusader
TTITLE4=05 Waiting For The Night
TTITLE5=06 Princess Of The Night
TTITLE6=07 Northern Lady
TTITLE7=08 Party Till You Puke
EXTD=
EXTT0=
EXTT1=
EXTT2=
EXTT3=
EXTT4=
EXTT5=
EXTT6=
EXTT7=
PLAYORDER=
